<mxfile host="app.diagrams.net" modified="2024-07-02T06:15:00.488Z" agent="Mozilla/5.0 (Windows NT 10.0; Win64; x64) AppleWebKit/537.36 (KHTML, like Gecko) Chrome/126.0.0.0 Safari/537.36" version="24.6.4" etag="y1AuMxbMDG4sDSz506eE" type="github">
  <diagram name="Page-1" id="1jypbWVGrdBx1G-9Vrjr">
    <mxGraphModel>
      <root>
        <mxCell id="0" />
        <mxCell id="1" parent="0" />
      </root>
    </mxGraphModel>
  </diagram>
</mxfile>
